<?xml version="1.0" encoding="utf-8"?>
<!-- Generator: Adobe Illustrator 14.0.0, SVG Export Plug-In . SVG Version: 6.00 Build 43363)  -->
<!DOCTYPE svg PUBLIC "-//W3C//DTD SVG 1.1//EN" "http://www.w3.org/Graphics/SVG/1.1/DTD/svg11.dtd">
<svg version="1.1" id="Logo" xmlns="http://www.w3.org/2000/svg" xmlns:xlink="http://www.w3.org/1999/xlink" x="0px" y="0px"
	 width="517px" height="49px" viewBox="0 0 517 49" enable-background="new 0 0 517 49" xml:space="preserve">
<g>
	<path fill="none" d="M525.5,3.334c-86.687,0-173.374,0-260.061,0c-54.903,0-109.805,0-164.708,0c-12.521,0-25.041,0-37.562,0
		c-3.095,0-5.165,34.148-2.17,37.5c6.997,7.831,67.842,0,77.873,0c60.729,0,121.458,0,182.188,0c54.902,0,109.806,0,164.708,0
		C526.751,40.834,525.5,46.751,525.5,3.334"/>
	<path d="M84.561,5.926c-1.024,0-2.072-0.088-3.144-0.264c-1.073-0.175-2.153-0.376-3.24-0.6v10.992h7.104v2.832h-7.104v18.048
		h-5.232V4.198c-0.16-0.032-0.312-0.048-0.456-0.048c-0.144,0-0.296,0-0.456,0c-0.832,0-1.616,0.113-2.352,0.336
		c-0.736,0.225-1.368,0.608-1.896,1.152c-0.527,0.544-0.944,1.272-1.248,2.184c-0.304,0.912-0.456,2.056-0.456,3.432
		c0,1.728,0.218,3.176,0.653,4.344s0.944,1.992,1.524,2.473c-3.819,0-5.729-2.096-5.729-6.289c0-1.535,0.257-2.959,0.771-4.271
		c0.513-1.312,1.315-2.456,2.407-3.432c1.092-0.976,2.479-1.744,4.165-2.304c1.685-0.56,3.699-0.84,6.043-0.84
		c0.802,0,1.563,0.032,2.285,0.096c0.721,0.064,1.417,0.128,2.089,0.192c0.673,0.064,1.36,0.128,2.064,0.192
		c0.703,0.064,1.456,0.096,2.256,0.096s1.552-0.04,2.256-0.12c0.704-0.08,1.376-0.232,2.017-0.456
		c-0.064,1.121-0.217,2.008-0.456,2.664c-0.24,0.656-0.553,1.152-0.937,1.488s-0.824,0.561-1.319,0.672
		C85.672,5.87,85.137,5.926,84.561,5.926z"/>
	<path d="M105.775,12.934v16.32c0,0.32,0.016,0.72,0.048,1.199c0.031,0.48,0.12,0.953,0.265,1.416
		c0.144,0.465,0.359,0.864,0.647,1.2s0.688,0.504,1.2,0.504c1.567,0,2.72-1.743,3.456-5.231h1.775
		c-0.352,2.016-0.8,3.608-1.344,4.775c-0.544,1.169-1.12,2.057-1.728,2.664c-0.608,0.608-1.232,1.001-1.872,1.177
		c-0.641,0.175-1.217,0.264-1.729,0.264c-0.736,0-1.367-0.128-1.896-0.384s-0.977-0.592-1.344-1.008
		c-0.368-0.416-0.665-0.896-0.889-1.44c-0.224-0.544-0.4-1.12-0.527-1.729c-0.48,1.248-1.257,2.321-2.328,3.217
		c-1.072,0.896-2.376,1.344-3.912,1.344c-0.96,0-1.929-0.192-2.904-0.576c-0.977-0.384-1.856-1.016-2.64-1.896
		c-0.785-0.88-1.425-2.017-1.92-3.408c-0.497-1.393-0.744-3.097-0.744-5.112c0-1.472,0.168-3.007,0.504-4.608
		c0.336-1.6,0.871-3.055,1.608-4.367c0.735-1.313,1.68-2.4,2.832-3.264c1.151-0.865,2.544-1.297,4.176-1.297
		c0.384,0,0.792,0.04,1.224,0.118c0.432,0.079,0.848,0.212,1.248,0.4c0.399,0.188,0.775,0.448,1.128,0.778
		c0.352,0.33,0.64,0.73,0.864,1.201v-2.258H105.775z M96.8,33.573c0.479,0,0.967-0.136,1.464-0.408
		c0.495-0.273,0.943-0.643,1.344-1.107c0.399-0.465,0.728-1.019,0.984-1.66c0.256-0.642,0.384-1.331,0.384-2.069V17.355
		c-0.225-0.514-0.568-0.986-1.032-1.42s-1.064-0.65-1.8-0.65c-1.024,0-1.904,0.346-2.64,1.035c-0.737,0.69-1.329,1.557-1.776,2.6
		c-0.448,1.042-0.776,2.182-0.984,3.416c-0.208,1.236-0.312,2.414-0.312,3.537c0,2.761,0.376,4.733,1.128,5.92
		C94.311,32.98,95.391,33.573,96.8,33.573z"/>
	<path d="M116.143,12.934v4.032c0.384-0.576,0.76-1.12,1.128-1.632s0.775-0.961,1.225-1.344c0.447-0.385,0.943-0.697,1.487-0.937
		c0.544-0.24,1.152-0.36,1.824-0.36c1.088,0,1.888,0.281,2.4,0.84c0.512,0.561,0.768,1.24,0.768,2.041c0,0.479-0.08,0.88-0.24,1.199
		c-0.16,0.32-0.353,0.576-0.575,0.768c-0.225,0.192-0.465,0.329-0.721,0.408c-0.256,0.08-0.479,0.121-0.672,0.121
		c-0.288,0-0.521-0.064-0.696-0.193c-0.176-0.127-0.352-0.264-0.527-0.407c-0.177-0.144-0.377-0.28-0.601-0.408
		s-0.512-0.192-0.863-0.192c-0.737,0-1.44,0.257-2.112,0.769c-0.672,0.513-1.28,1.056-1.824,1.632v17.664h-4.8v-24H116.143z"/>
	<path d="M132.318,5.638v7.296h3.696v1.729h-3.696v14.603c0,0.384,0.016,0.822,0.048,1.317s0.12,0.965,0.265,1.412
		c0.144,0.447,0.367,0.822,0.672,1.125c0.304,0.303,0.728,0.454,1.271,0.454c0.864,0,1.688-0.432,2.473-1.296
		c0.783-0.863,1.399-2.176,1.848-3.936h1.776c-0.545,2.016-1.128,3.608-1.752,4.775c-0.624,1.169-1.272,2.057-1.944,2.664
		c-0.672,0.608-1.336,1.001-1.992,1.177c-0.656,0.175-1.256,0.264-1.8,0.264c-1.152,0-2.096-0.216-2.832-0.646
		s-1.313-0.981-1.728-1.652c-0.417-0.671-0.705-1.413-0.864-2.228c-0.16-0.814-0.24-1.621-0.24-2.419V14.662h-1.632v-1.729h1.632
		V6.31L132.318,5.638z"/>
	<path d="M143.598,3.333v13.249c0.48-0.864,0.968-1.561,1.464-2.088c0.496-0.528,1-0.92,1.513-1.177
		c0.511-0.255,0.999-0.423,1.464-0.504c0.463-0.079,0.903-0.12,1.319-0.12c1.44,0,2.6,0.272,3.48,0.816
		c0.88,0.545,1.543,1.24,1.992,2.088c0.447,0.848,0.744,1.775,0.888,2.784c0.145,1.008,0.216,1.976,0.216,2.903
		c0,0.576-0.017,1.209-0.048,1.896c-0.032,0.688-0.064,1.393-0.096,2.111c-0.032,0.721-0.064,1.44-0.097,2.16
		c-0.032,0.721-0.048,1.385-0.048,1.992c0,0.257,0.016,0.617,0.048,1.08c0.032,0.465,0.112,0.921,0.24,1.368
		c0.128,0.448,0.336,0.84,0.624,1.176s0.704,0.504,1.248,0.504c0.736,0,1.399-0.415,1.992-1.248c0.592-0.831,1.08-2.159,1.464-3.983
		h1.776c-0.353,2.016-0.801,3.608-1.345,4.775c-0.544,1.169-1.12,2.057-1.728,2.664c-0.608,0.608-1.217,1.001-1.824,1.177
		c-0.608,0.175-1.168,0.264-1.68,0.264c-1.024,0-1.889-0.2-2.592-0.6c-0.704-0.4-1.28-0.937-1.729-1.608s-0.776-1.456-0.983-2.353
		c-0.209-0.896-0.313-1.823-0.313-2.783c0-0.288,0.008-0.824,0.024-1.608c0.016-0.783,0.031-1.624,0.048-2.52
		c0.016-0.896,0.031-1.744,0.048-2.545c0.016-0.799,0.024-1.359,0.024-1.68c0-1.023-0.081-1.871-0.24-2.544
		c-0.161-0.672-0.384-1.2-0.672-1.584s-0.617-0.655-0.984-0.815c-0.368-0.16-0.761-0.24-1.176-0.24c-0.992,0-1.848,0.4-2.568,1.199
		c-0.72,0.801-1.304,2.145-1.752,4.033v15.359h-4.8V4.005L143.598,3.333z"/>
	<path d="M160.397,6.021c0-0.864,0.304-1.615,0.912-2.256c0.607-0.64,1.36-0.96,2.256-0.96c0.864,0,1.616,0.32,2.257,0.96
		c0.64,0.641,0.96,1.392,0.96,2.256c0,0.896-0.32,1.648-0.96,2.256c-0.641,0.608-1.393,0.912-2.257,0.912
		c-0.896,0-1.648-0.304-2.256-0.912C160.701,7.67,160.397,6.918,160.397,6.021z M166.062,12.934v16.32
		c0,0.32,0.016,0.72,0.048,1.199c0.032,0.48,0.12,0.953,0.265,1.416c0.144,0.465,0.359,0.864,0.647,1.2s0.688,0.504,1.2,0.504
		c1.567,0,2.72-1.743,3.456-5.231h1.776c-0.353,2.016-0.801,3.608-1.345,4.775c-0.544,1.169-1.12,2.057-1.728,2.664
		c-0.608,0.608-1.232,1.001-1.872,1.177c-0.641,0.175-1.217,0.264-1.728,0.264c-1.121,0-2.033-0.216-2.736-0.648
		c-0.704-0.432-1.265-0.983-1.68-1.655c-0.417-0.673-0.705-1.424-0.864-2.257c-0.16-0.831-0.24-1.632-0.24-2.399V12.934H166.062z"/>
	<path d="M176.43,12.934v3.648c0.48-0.864,0.968-1.561,1.464-2.088c0.496-0.528,1-0.92,1.513-1.177
		c0.511-0.255,0.999-0.423,1.464-0.504c0.463-0.079,0.903-0.12,1.319-0.12c1.44,0,2.6,0.272,3.48,0.816
		c0.88,0.545,1.543,1.24,1.992,2.088c0.447,0.848,0.744,1.775,0.888,2.784c0.145,1.008,0.216,1.976,0.216,2.903
		c0,0.576-0.017,1.209-0.048,1.896c-0.032,0.688-0.064,1.393-0.096,2.111c-0.032,0.721-0.064,1.44-0.097,2.16
		c-0.032,0.721-0.048,1.385-0.048,1.992c0,0.257,0.016,0.617,0.048,1.08c0.032,0.465,0.112,0.921,0.24,1.368
		c0.128,0.448,0.336,0.84,0.624,1.176s0.704,0.504,1.248,0.504c0.736,0,1.399-0.415,1.992-1.248c0.592-0.831,1.08-2.159,1.464-3.983
		h1.776c-0.353,2.016-0.801,3.608-1.345,4.775c-0.544,1.169-1.12,2.057-1.728,2.664c-0.608,0.608-1.217,1.001-1.824,1.177
		c-0.608,0.175-1.168,0.264-1.68,0.264c-1.024,0-1.889-0.2-2.592-0.6c-0.704-0.4-1.28-0.937-1.729-1.608s-0.776-1.456-0.983-2.353
		c-0.209-0.896-0.313-1.823-0.313-2.783c0-0.288,0.008-0.824,0.024-1.608c0.016-0.783,0.031-1.624,0.048-2.52
		c0.016-0.896,0.031-1.744,0.048-2.545c0.016-0.799,0.024-1.359,0.024-1.68c0-1.023-0.081-1.871-0.24-2.544
		c-0.161-0.672-0.384-1.2-0.672-1.584s-0.617-0.655-0.984-0.815c-0.368-0.16-0.761-0.24-1.176-0.24c-0.992,0-1.848,0.4-2.568,1.199
		c-0.72,0.801-1.304,2.145-1.752,4.033v15.359h-4.8v-24H176.43z"/>
	<path d="M211.758,12.934v22.992c0.8-0.256,1.512-0.544,2.136-0.864c0.624-0.319,1.168-0.751,1.633-1.296
		c0.463-0.544,0.847-1.248,1.151-2.112c0.304-0.863,0.536-1.968,0.696-3.312h1.775c-0.256,1.696-0.584,3.08-0.983,4.151
		c-0.4,1.073-0.896,1.937-1.488,2.593c-0.593,0.656-1.296,1.168-2.112,1.536c-0.815,0.367-1.752,0.711-2.808,1.031v3.072
		c0,1.504-0.16,2.775-0.479,3.816c-0.32,1.039-0.761,1.888-1.32,2.544c-0.561,0.655-1.2,1.128-1.92,1.416s-1.48,0.432-2.28,0.432
		c-1.601,0-2.849-0.456-3.744-1.368c-0.896-0.912-1.344-2.024-1.344-3.336c0-0.832,0.184-1.584,0.552-2.256s0.848-1.288,1.44-1.848
		c0.592-0.561,1.264-1.057,2.016-1.488s1.512-0.809,2.28-1.128v-4.128c-0.608,0.832-1.368,1.52-2.28,2.063
		c-0.912,0.545-1.943,0.816-3.096,0.816c-0.96,0-1.929-0.184-2.904-0.552c-0.977-0.368-1.856-0.968-2.64-1.801
		c-0.785-0.831-1.425-1.92-1.92-3.264c-0.497-1.344-0.744-2.976-0.744-4.896c0-1.44,0.168-2.928,0.504-4.465
		c0.336-1.535,0.871-2.936,1.608-4.199c0.735-1.264,1.68-2.313,2.832-3.145c1.151-0.832,2.544-1.248,4.176-1.248
		c0.384,0,0.792,0.04,1.224,0.118c0.432,0.079,0.848,0.212,1.248,0.4c0.399,0.188,0.775,0.448,1.128,0.778
		c0.352,0.33,0.64,0.73,0.864,1.201v-2.258H211.758z M202.782,32.613c0.479,0,0.967-0.128,1.464-0.385
		c0.495-0.256,0.943-0.609,1.344-1.059c0.399-0.449,0.728-0.979,0.984-1.589c0.256-0.609,0.384-1.268,0.384-1.973V17.355
		c-0.225-0.513-0.568-0.986-1.032-1.42s-1.064-0.65-1.8-0.65c-1.024,0-1.904,0.33-2.64,0.987c-0.737,0.657-1.329,1.484-1.776,2.479
		c-0.448,0.994-0.776,2.085-0.984,3.272c-0.208,1.187-0.312,2.31-0.312,3.369c0,2.6,0.376,4.452,1.128,5.56
		C200.293,32.061,201.373,32.613,202.782,32.613z M204.846,46.438c0.864,0,1.432-0.328,1.704-0.984
		c0.271-0.656,0.408-1.544,0.408-2.663v-3.36c-1.601,0.735-2.736,1.464-3.408,2.184c-0.672,0.721-1.008,1.528-1.008,2.424
		c0,0.736,0.199,1.32,0.6,1.753C203.542,46.222,204.109,46.438,204.846,46.438z"/>
	<path d="M217.372,4.005l4.753-0.672l0.048,11.375c0.544-0.543,1.184-0.99,1.92-1.344c0.736-0.352,1.616-0.527,2.641-0.527
		c0.864,0,1.76,0.152,2.688,0.455c0.928,0.305,1.792,0.841,2.593,1.608c0.799,0.769,1.455,1.824,1.968,3.169
		c0.512,1.344,0.768,3.056,0.768,5.135c0,1.824-0.216,3.585-0.647,5.28c-0.433,1.696-1.089,3.192-1.969,4.488
		s-1.976,2.328-3.288,3.096c-1.313,0.769-2.848,1.152-4.607,1.152c-0.992,0-1.913-0.152-2.76-0.456
		c-0.849-0.304-1.577-0.8-2.185-1.488c-0.608-0.688-1.088-1.6-1.439-2.735c-0.353-1.136-0.528-2.536-0.528-4.2L217.372,4.005z
		 M230.478,24.31c0-1.248-0.113-2.415-0.339-3.504c-0.225-1.087-0.555-2.04-0.989-2.856c-0.435-0.815-0.966-1.455-1.594-1.92
		c-0.628-0.463-1.344-0.695-2.147-0.695c-0.644,0-1.239,0.152-1.787,0.455c-0.547,0.305-1.046,0.696-1.496,1.177V29.59
		c0,2.88,0.949,4.319,2.849,4.319c0.9,0,1.697-0.264,2.39-0.792c0.691-0.527,1.271-1.239,1.737-2.136
		c0.467-0.896,0.813-1.92,1.038-3.072C230.364,26.758,230.478,25.558,230.478,24.31z"/>
	<path d="M246.174,12.693c1.248,0,2.319,0.192,3.216,0.576c0.896,0.385,1.632,0.92,2.208,1.607c0.576,0.689,1.032,1.497,1.368,2.425
		c0.336,0.929,0.583,1.92,0.744,2.976h0.288c1.344,0,2.575-0.271,3.695-0.816c1.12-0.543,2.08-1.23,2.88-2.063l0.721,1.296
		c-0.641,1.025-1.656,1.872-3.048,2.545c-1.393,0.672-2.825,1.136-4.297,1.391c0,0.32,0.008,0.641,0.024,0.961
		c0.016,0.32,0.024,0.656,0.024,1.008c0,3.936-0.721,7.024-2.16,9.264c-1.44,2.24-3.456,3.36-6.048,3.36
		c-1.057,0-2.121-0.192-3.192-0.576c-1.072-0.384-2.04-1.023-2.904-1.92c-0.863-0.896-1.56-2.048-2.088-3.456
		c-0.527-1.407-0.792-3.151-0.792-5.232c0-1.407,0.151-2.896,0.456-4.463c0.304-1.568,0.816-3.008,1.536-4.32s1.68-2.4,2.88-3.264
		C242.886,13.125,244.381,12.693,246.174,12.693z M246.679,33.573c1.688,0,2.929-0.84,3.725-2.52s1.194-4.056,1.194-7.128
		c0-0.192,0-0.385,0-0.576s-0.017-0.384-0.048-0.576c-0.929-0.063-1.593-0.271-1.992-0.624c-0.4-0.352-0.6-0.943-0.6-1.776
		c0-0.735,0.159-1.255,0.479-1.56c0.319-0.304,0.8-0.472,1.44-0.504c-0.383-1.138-0.868-1.926-1.457-2.365
		c-0.589-0.438-1.248-0.659-1.98-0.659c-0.987,0-1.822,0.33-2.507,0.987c-0.684,0.657-1.241,1.5-1.671,2.526
		c-0.43,1.027-0.74,2.158-0.931,3.394c-0.191,1.235-0.286,2.446-0.286,3.633c0,1.572,0.143,2.856,0.43,3.851
		c0.286,0.994,0.652,1.78,1.098,2.358c0.445,0.577,0.939,0.979,1.48,1.203C245.596,33.462,246.137,33.573,246.679,33.573z"/>
	<path d="M262.349,5.638v7.296h3.696v1.729h-3.696v14.603c0,0.384,0.016,0.822,0.048,1.317s0.12,0.965,0.265,1.412
		c0.144,0.447,0.367,0.822,0.672,1.125c0.304,0.303,0.728,0.454,1.271,0.454c0.864,0,1.688-0.432,2.473-1.296
		c0.783-0.863,1.399-2.176,1.848-3.936h1.776c-0.545,2.016-1.128,3.608-1.752,4.775c-0.624,1.169-1.272,2.057-1.944,2.664
		c-0.672,0.608-1.336,1.001-1.992,1.177c-0.656,0.175-1.256,0.264-1.8,0.264c-1.152,0-2.096-0.216-2.832-0.646
		s-1.313-0.981-1.728-1.652c-0.417-0.671-0.705-1.413-0.864-2.228c-0.16-0.814-0.24-1.621-0.24-2.419V14.662h-1.632v-1.729h1.632
		V6.31L262.349,5.638z"/>
	<path d="M273.677,5.638v7.296h3.696v1.729h-3.696v14.603c0,0.384,0.016,0.822,0.048,1.317s0.12,0.965,0.265,1.412
		c0.144,0.447,0.367,0.822,0.672,1.125c0.304,0.303,0.728,0.454,1.271,0.454c0.864,0,1.688-0.432,2.473-1.296
		c0.783-0.863,1.399-2.176,1.848-3.936h1.776c-0.545,2.016-1.128,3.608-1.752,4.775c-0.624,1.169-1.272,2.057-1.944,2.664
		c-0.672,0.608-1.336,1.001-1.992,1.177c-0.656,0.175-1.256,0.264-1.8,0.264c-1.152,0-2.096-0.216-2.832-0.646
		s-1.313-0.981-1.728-1.652c-0.417-0.671-0.705-1.413-0.864-2.228c-0.16-0.814-0.24-1.621-0.24-2.419V14.662h-1.632v-1.729h1.632
		V6.31L273.677,5.638z"/>
	<path d="M288.941,12.693c1.248,0,2.319,0.192,3.216,0.576c0.896,0.385,1.632,0.92,2.208,1.607c0.576,0.689,1.032,1.497,1.368,2.425
		c0.336,0.929,0.583,1.92,0.744,2.976h0.288c1.344,0,2.575-0.271,3.695-0.816c1.12-0.543,2.08-1.23,2.88-2.063l0.721,1.296
		c-0.641,1.025-1.656,1.872-3.048,2.545c-1.393,0.672-2.825,1.136-4.297,1.391c0,0.32,0.008,0.641,0.024,0.961
		c0.016,0.32,0.024,0.656,0.024,1.008c0,3.936-0.721,7.024-2.16,9.264c-1.44,2.24-3.456,3.36-6.048,3.36
		c-1.057,0-2.121-0.192-3.192-0.576c-1.072-0.384-2.04-1.023-2.904-1.92c-0.863-0.896-1.56-2.048-2.088-3.456
		c-0.527-1.407-0.792-3.151-0.792-5.232c0-1.407,0.151-2.896,0.456-4.463c0.304-1.568,0.816-3.008,1.536-4.32s1.68-2.4,2.88-3.264
		C285.653,13.125,287.148,12.693,288.941,12.693z M289.446,33.573c1.688,0,2.929-0.84,3.725-2.52s1.194-4.056,1.194-7.128
		c0-0.192,0-0.385,0-0.576s-0.017-0.384-0.048-0.576c-0.929-0.063-1.593-0.271-1.992-0.624c-0.4-0.352-0.6-0.943-0.6-1.776
		c0-0.735,0.159-1.255,0.479-1.56c0.319-0.304,0.8-0.472,1.44-0.504c-0.383-1.138-0.868-1.926-1.457-2.365
		c-0.589-0.438-1.248-0.659-1.98-0.659c-0.987,0-1.822,0.33-2.507,0.987c-0.684,0.657-1.241,1.5-1.671,2.526
		c-0.43,1.027-0.74,2.158-0.931,3.394c-0.191,1.235-0.286,2.446-0.286,3.633c0,1.572,0.143,2.856,0.43,3.851
		c0.286,0.994,0.652,1.78,1.098,2.358c0.445,0.577,0.939,0.979,1.48,1.203C288.363,33.462,288.904,33.573,289.446,33.573z"/>
	<path d="M305.068,12.934v3.313c0.832-1.537,1.712-2.512,2.641-2.929c0.928-0.415,1.807-0.624,2.64-0.624
		c0.832,0,1.56,0.113,2.184,0.336c0.624,0.225,1.16,0.528,1.608,0.912c0.447,0.385,0.823,0.832,1.128,1.344
		c0.304,0.513,0.552,1.072,0.744,1.681c0.447-0.96,0.912-1.72,1.392-2.28c0.48-0.56,0.96-0.991,1.44-1.296
		c0.479-0.304,0.951-0.495,1.416-0.576c0.463-0.079,0.888-0.12,1.271-0.12c1.44,0,2.6,0.272,3.48,0.816
		c0.88,0.545,1.543,1.24,1.992,2.088c0.447,0.848,0.744,1.775,0.888,2.784c0.144,1.008,0.216,1.976,0.216,2.903
		c0,0.576-0.017,1.209-0.048,1.896c-0.032,0.688-0.064,1.393-0.096,2.111c-0.032,0.721-0.064,1.44-0.097,2.16
		c-0.032,0.721-0.048,1.385-0.048,1.992c0,0.257,0.016,0.617,0.048,1.08c0.032,0.465,0.112,0.921,0.24,1.368
		c0.128,0.448,0.336,0.84,0.624,1.176s0.704,0.504,1.248,0.504c0.864,0,1.536-0.144,2.016-0.432v0.336
		c0,0.801-0.112,1.448-0.336,1.944s-0.504,0.872-0.84,1.128s-0.704,0.432-1.104,0.527c-0.4,0.097-0.761,0.145-1.08,0.145
		c-1.024,0-1.889-0.2-2.592-0.6c-0.705-0.4-1.28-0.937-1.729-1.608s-0.776-1.456-0.983-2.353c-0.209-0.896-0.313-1.823-0.313-2.783
		c0-0.288,0.008-0.824,0.024-1.608c0.016-0.783,0.031-1.624,0.048-2.52c0.016-0.896,0.031-1.744,0.048-2.545
		c0.016-0.799,0.023-1.359,0.023-1.68c0-1.023-0.08-1.871-0.239-2.544c-0.161-0.672-0.384-1.2-0.672-1.584s-0.617-0.655-0.984-0.815
		c-0.368-0.16-0.761-0.24-1.176-0.24c-0.992,0-1.8,0.4-2.424,1.199c-0.624,0.801-1.064,2.145-1.32,4.033v15.359h-4.8V20.901
		c0-0.575-0.024-1.136-0.072-1.68s-0.168-1.032-0.36-1.464c-0.191-0.432-0.464-0.775-0.815-1.032
		c-0.353-0.256-0.833-0.384-1.44-0.384c-1.024,0-1.8,0.424-2.328,1.271c-0.527,0.849-1.016,2.168-1.464,3.961v15.359h-4.8v-24
		H305.068z"/>
	<path d="M359.355,36.934h-5.231V3.766c-2.145,0.608-3.841,1.648-5.089,3.12c-1.248,1.472-1.871,3.312-1.871,5.521
		c0,0.863,0.063,1.592,0.19,2.184c0.126,0.592,0.284,1.104,0.475,1.535c0.191,0.433,0.421,0.801,0.69,1.104
		c0.271,0.305,0.548,0.585,0.833,0.841c-1.914,0-3.43-0.44-4.546-1.32c-1.117-0.881-1.675-2.377-1.675-4.488
		c0-1.536,0.398-2.983,1.196-4.344c0.798-1.36,1.858-2.56,3.183-3.6c1.324-1.039,2.84-1.864,4.547-2.472
		c1.707-0.607,3.469-0.912,5.288-0.912c0.351,0,0.693,0.008,1.029,0.024c0.334,0.017,0.661,0.041,0.98,0.072V36.934z"/>
	<path d="M368.619,12.934v3.648c0.48-0.864,0.968-1.561,1.464-2.088c0.496-0.528,1-0.92,1.513-1.177
		c0.511-0.255,0.999-0.423,1.464-0.504c0.463-0.079,0.903-0.12,1.319-0.12c1.44,0,2.6,0.272,3.48,0.816
		c0.88,0.545,1.543,1.24,1.992,2.088c0.447,0.848,0.744,1.775,0.888,2.784c0.145,1.008,0.216,1.976,0.216,2.903
		c0,0.576-0.017,1.209-0.048,1.896c-0.032,0.688-0.064,1.393-0.096,2.111c-0.032,0.721-0.064,1.44-0.097,2.16
		c-0.032,0.721-0.048,1.385-0.048,1.992c0,0.257,0.016,0.617,0.048,1.08c0.032,0.465,0.112,0.921,0.24,1.368
		c0.128,0.448,0.336,0.84,0.624,1.176s0.704,0.504,1.248,0.504c0.736,0,1.399-0.415,1.992-1.248c0.592-0.831,1.08-2.159,1.464-3.983
		h1.776c-0.353,2.016-0.801,3.608-1.345,4.775c-0.544,1.169-1.12,2.057-1.728,2.664c-0.608,0.608-1.217,1.001-1.824,1.177
		c-0.608,0.175-1.168,0.264-1.68,0.264c-1.024,0-1.889-0.2-2.592-0.6c-0.704-0.4-1.28-0.937-1.729-1.608s-0.776-1.456-0.983-2.353
		c-0.209-0.896-0.313-1.823-0.313-2.783c0-0.288,0.008-0.824,0.024-1.608c0.016-0.783,0.031-1.624,0.048-2.52
		c0.016-0.896,0.031-1.744,0.048-2.545c0.016-0.799,0.024-1.359,0.024-1.68c0-1.023-0.081-1.871-0.24-2.544
		c-0.161-0.672-0.384-1.2-0.672-1.584s-0.617-0.655-0.984-0.815c-0.368-0.16-0.761-0.24-1.176-0.24c-0.992,0-1.848,0.4-2.568,1.199
		c-0.72,0.801-1.304,2.145-1.752,4.033v15.359h-4.8v-24H368.619z"/>
	<path d="M403.947,3.333v25.92c0,0.32,0.016,0.72,0.048,1.199c0.031,0.48,0.12,0.953,0.265,1.416c0.144,0.465,0.359,0.864,0.647,1.2
		s0.688,0.504,1.2,0.504c1.567,0,2.72-1.743,3.456-5.231h1.775c-0.352,2.016-0.8,3.608-1.344,4.775
		c-0.544,1.169-1.12,2.057-1.728,2.664c-0.608,0.608-1.232,1.001-1.872,1.177c-0.641,0.175-1.217,0.264-1.729,0.264
		c-0.736,0-1.367-0.128-1.896-0.384s-0.977-0.592-1.344-1.008c-0.368-0.416-0.665-0.896-0.889-1.44
		c-0.224-0.544-0.4-1.12-0.527-1.729c-0.48,1.248-1.257,2.321-2.328,3.217c-1.072,0.896-2.376,1.344-3.912,1.344
		c-0.96,0-1.929-0.192-2.904-0.576c-0.977-0.384-1.856-1.016-2.64-1.896c-0.785-0.88-1.425-2.017-1.92-3.408
		c-0.497-1.393-0.744-3.097-0.744-5.112c0-1.472,0.168-3.007,0.504-4.608c0.336-1.6,0.871-3.055,1.608-4.367
		c0.735-1.313,1.68-2.4,2.832-3.264c1.151-0.865,2.544-1.297,4.176-1.297c0.384,0,0.792,0.04,1.224,0.118
		c0.432,0.079,0.848,0.212,1.248,0.4c0.399,0.188,0.775,0.448,1.128,0.778c0.352,0.33,0.64,0.73,0.864,1.201V4.002L403.947,3.333z
		 M394.972,33.573c0.479,0,0.967-0.136,1.464-0.408c0.495-0.273,0.943-0.643,1.344-1.107c0.399-0.465,0.728-1.019,0.984-1.66
		c0.256-0.642,0.384-1.331,0.384-2.069V17.355c-0.225-0.514-0.568-0.986-1.032-1.42s-1.064-0.65-1.8-0.65
		c-1.024,0-1.904,0.346-2.64,1.035c-0.737,0.69-1.329,1.557-1.776,2.6c-0.448,1.042-0.776,2.182-0.984,3.416
		c-0.208,1.236-0.312,2.414-0.312,3.537c0,2.761,0.376,4.733,1.128,5.92C392.482,32.98,393.563,33.573,394.972,33.573z"/>
	<path d="M425.738,12.934v16.32c0,0.32,0.016,0.72,0.049,1.199c0.031,0.48,0.119,0.953,0.264,1.416
		c0.144,0.465,0.359,0.864,0.647,1.2s0.688,0.504,1.2,0.504c1.567,0,2.72-1.743,3.456-5.231h1.776
		c-0.353,2.016-0.801,3.608-1.344,4.775c-0.545,1.169-1.121,2.057-1.729,2.664c-0.608,0.608-1.232,1.001-1.872,1.177
		c-0.641,0.175-1.217,0.264-1.728,0.264c-0.737,0-1.368-0.128-1.896-0.384s-0.977-0.592-1.344-1.008
		c-0.368-0.416-0.665-0.896-0.888-1.44c-0.225-0.544-0.401-1.104-0.528-1.68c-0.608,1.568-1.408,2.712-2.4,3.432
		s-2.032,1.08-3.12,1.08c-0.928,0-1.808-0.128-2.64-0.384s-1.553-0.68-2.16-1.272c-0.608-0.592-1.088-1.359-1.439-2.304
		c-0.353-0.943-0.528-2.104-0.528-3.48V12.934h4.8v16.32c0,1.568,0.271,2.681,0.816,3.336c0.544,0.656,1.231,0.983,2.063,0.983
		c0.448,0,0.896-0.12,1.345-0.359c0.447-0.24,0.847-0.584,1.199-1.032s0.64-0.991,0.864-1.632c0.224-0.64,0.336-1.376,0.336-2.208
		V12.934H425.738z"/>
	<path d="M449.787,28.342c-0.929,1.28-1.881,2.345-2.856,3.191c-0.977,0.849-1.929,1.593-2.856,2.232
		c-0.353,0.641-0.8,1.176-1.344,1.608c-0.544,0.432-1.128,0.784-1.752,1.056c-0.624,0.272-1.248,0.473-1.872,0.6
		c-0.624,0.128-1.192,0.192-1.704,0.192c-1.408,0-2.567-0.225-3.479-0.672c-0.912-0.448-1.641-1.016-2.185-1.704
		c-0.544-0.688-0.928-1.456-1.151-2.304c-0.225-0.848-0.336-1.656-0.336-2.425c0-0.831,0.168-1.56,0.504-2.184
		s0.744-1.063,1.224-1.32c0.832-2.4,1.647-4.775,2.448-7.128c0.8-2.352,1.327-4.712,1.584-7.079l4.848-0.961
		c0.769,3.041,1.399,5.521,1.896,7.44c0.495,1.92,0.896,3.544,1.2,4.872c0.304,1.328,0.527,2.496,0.672,3.504
		c0.144,1.008,0.216,2.12,0.216,3.336c0.544-0.352,1.056-0.728,1.536-1.128c0.479-0.399,0.943-0.775,1.392-1.128H449.787z
		 M439.755,30.262c0-0.991-0.057-1.872-0.168-2.64c-0.112-0.769-0.281-1.616-0.504-2.544c-0.225-0.928-0.504-2.057-0.841-3.385
		c-0.336-1.327-0.728-3.031-1.176-5.111c-0.191,1.792-0.584,3.504-1.176,5.136c-0.593,1.632-1.128,3.312-1.608,5.04
		c0.288,0.191,0.536,0.456,0.744,0.792s0.313,0.776,0.313,1.319c0,0.608-0.161,1.073-0.48,1.393c-0.32,0.32-0.672,0.479-1.056,0.479
		c-0.513,0-0.944-0.223-1.296-0.672c0.256,1.121,0.703,1.992,1.344,2.616c0.64,0.624,1.488,0.937,2.544,0.937
		c1.023,0,1.84-0.265,2.448-0.792C439.45,32.302,439.755,31.446,439.755,30.262z"/>
	<path d="M452.57,5.638v7.296h3.696v1.729h-3.696v14.603c0,0.384,0.016,0.822,0.048,1.317s0.12,0.965,0.265,1.412
		c0.144,0.447,0.367,0.822,0.672,1.125c0.304,0.303,0.728,0.454,1.271,0.454c0.864,0,1.688-0.432,2.473-1.296
		c0.783-0.863,1.399-2.176,1.848-3.936h1.776c-0.545,2.016-1.128,3.608-1.752,4.775c-0.624,1.169-1.272,2.057-1.944,2.664
		c-0.672,0.608-1.336,1.001-1.992,1.177c-0.656,0.175-1.256,0.264-1.8,0.264c-1.152,0-2.096-0.216-2.832-0.646
		s-1.313-0.981-1.728-1.652c-0.417-0.671-0.705-1.413-0.864-2.228c-0.16-0.814-0.24-1.621-0.24-2.419V14.662h-1.632v-1.729h1.632
		V6.31L452.57,5.638z"/>
	<path d="M463.85,12.934v4.032c0.384-0.576,0.76-1.12,1.128-1.632s0.775-0.961,1.225-1.344c0.447-0.385,0.943-0.697,1.487-0.937
		c0.544-0.24,1.152-0.36,1.824-0.36c1.088,0,1.888,0.281,2.4,0.84c0.512,0.561,0.768,1.24,0.768,2.041c0,0.479-0.08,0.88-0.24,1.199
		c-0.16,0.32-0.353,0.576-0.575,0.768c-0.225,0.192-0.465,0.329-0.721,0.408c-0.256,0.08-0.479,0.121-0.672,0.121
		c-0.288,0-0.521-0.064-0.696-0.193c-0.176-0.127-0.352-0.264-0.527-0.407c-0.177-0.144-0.377-0.28-0.601-0.408
		s-0.512-0.192-0.863-0.192c-0.737,0-1.44,0.257-2.112,0.769c-0.672,0.513-1.28,1.056-1.824,1.632v17.664h-4.8v-24H463.85z"/>
	<path d="M474.361,6.021c0-0.864,0.304-1.615,0.912-2.256c0.607-0.64,1.36-0.96,2.256-0.96c0.864,0,1.616,0.32,2.257,0.96
		c0.64,0.641,0.96,1.392,0.96,2.256c0,0.896-0.32,1.648-0.96,2.256c-0.641,0.608-1.393,0.912-2.257,0.912
		c-0.896,0-1.648-0.304-2.256-0.912C474.665,7.67,474.361,6.918,474.361,6.021z M480.025,12.934v16.32
		c0,0.32,0.016,0.72,0.048,1.199c0.032,0.48,0.12,0.953,0.265,1.416c0.144,0.465,0.359,0.864,0.647,1.2s0.688,0.504,1.2,0.504
		c1.567,0,2.72-1.743,3.456-5.231h1.776c-0.353,2.016-0.801,3.608-1.345,4.775c-0.544,1.169-1.12,2.057-1.728,2.664
		c-0.608,0.608-1.232,1.001-1.872,1.177c-0.641,0.175-1.217,0.264-1.728,0.264c-1.121,0-2.033-0.216-2.736-0.648
		c-0.704-0.432-1.265-0.983-1.68-1.655c-0.417-0.673-0.705-1.424-0.864-2.257c-0.16-0.831-0.24-1.632-0.24-2.399V12.934H480.025z"/>
	<path d="M500.618,18.934c0,2.24-0.921,4.112-2.761,5.616c-1.84,1.505-4.392,2.432-7.655,2.784c0.127,1.28,0.359,2.32,0.695,3.119
		c0.336,0.801,0.744,1.433,1.225,1.896c0.479,0.464,1.031,0.784,1.655,0.96c0.624,0.177,1.272,0.264,1.944,0.264
		c1.536,0,2.976-0.399,4.32-1.199c1.344-0.8,2.432-2.144,3.264-4.032h1.536c-0.416,1.184-0.992,2.313-1.729,3.384
		c-0.736,1.072-1.6,2.016-2.592,2.832s-2.063,1.464-3.216,1.944c-1.152,0.479-2.336,0.72-3.552,0.72c-1.121,0-2.2-0.192-3.24-0.576
		s-1.96-1.016-2.76-1.896c-0.801-0.88-1.448-2.023-1.944-3.433c-0.496-1.407-0.744-3.136-0.744-5.184c0-1.345,0.151-2.8,0.456-4.368
		c0.304-1.567,0.816-3.023,1.536-4.368c0.72-1.344,1.664-2.464,2.832-3.36c1.168-0.895,2.616-1.344,4.344-1.344
		c0.8,0,1.576,0.089,2.328,0.264c0.752,0.177,1.432,0.497,2.04,0.961c0.607,0.464,1.096,1.096,1.464,1.896
		S500.618,17.654,500.618,18.934z M490.153,25.461c2.272-0.352,4.072-1.151,5.4-2.399c1.327-1.248,1.992-2.784,1.992-4.608
		c0-1.215-0.209-2.088-0.624-2.615c-0.416-0.528-1.008-0.793-1.776-0.793c-0.832,0-1.56,0.32-2.184,0.961s-1.145,1.464-1.561,2.472
		s-0.728,2.128-0.936,3.36C490.257,23.07,490.153,24.278,490.153,25.461z"/>
	<path d="M512.81,11.445c0.769,3.072,1.408,5.576,1.92,7.512c0.512,1.938,0.92,3.568,1.225,4.896
		c0.304,1.328,0.52,2.504,0.647,3.528s0.192,2.16,0.192,3.408c0,1.184-0.257,2.184-0.769,3c-0.512,0.815-1.151,1.48-1.92,1.991
		c-0.768,0.513-1.584,0.881-2.447,1.104c-0.864,0.224-1.633,0.336-2.305,0.336c-1.408,0-2.567-0.225-3.479-0.672
		c-0.912-0.448-1.641-1.016-2.185-1.704c-0.544-0.688-0.928-1.456-1.151-2.304c-0.225-0.848-0.336-1.656-0.336-2.425
		c0-0.831,0.168-1.56,0.504-2.184s0.744-1.063,1.224-1.32c0.832-2.4,1.647-4.775,2.448-7.128c0.8-2.352,1.327-4.712,1.584-7.079
		L512.81,11.445z M511.706,30.262c0-0.991-0.057-1.872-0.168-2.64c-0.112-0.769-0.281-1.616-0.504-2.544
		c-0.225-0.928-0.504-2.057-0.841-3.385c-0.336-1.327-0.728-3.031-1.176-5.111c-0.191,1.792-0.584,3.504-1.176,5.136
		c-0.593,1.632-1.128,3.312-1.608,5.04c0.288,0.191,0.536,0.456,0.744,0.792s0.313,0.776,0.313,1.319
		c0,0.608-0.161,1.073-0.48,1.393c-0.32,0.32-0.672,0.479-1.056,0.479c-0.513,0-0.944-0.223-1.296-0.672
		c0.256,1.121,0.703,1.992,1.344,2.616c0.64,0.624,1.488,0.937,2.544,0.937c1.023,0,1.84-0.265,2.448-0.792
		C511.401,32.302,511.706,31.446,511.706,30.262z"/>
</g>
<path fill="none" stroke="#000000" stroke-width="0.001" d="M147.5,3.334c2.5,0,2.5,2.5,2.5,2.5c0,2.5-2.5,2.5-2.5,2.5
	c-2.5,0-2.5-2.5-2.5-2.5C145,3.334,147.5,3.334,147.5,3.334z"/>
<path fill="none" stroke="#000000" stroke-width="0.001" d="M137.5,8.334c1.381,0,2.5-1.119,2.5-2.5s-1.119-2.5-2.5-2.5"/>
<path fill="none" stroke="#000000" stroke-width="0.001" d="M137.5,3.334c-1.381,0-2.5,1.119-2.5,2.5s1.119,2.5,2.5,2.5"/>
<path d="M41.307,24.804c1.552-1.304,2.542-3.271,2.542-5.47c0-2.201-0.993-4.172-2.548-5.476c1.886-1.274,3.119-3.327,3.119-5.645
	c0-3.86-3.403-7-7.585-7c-1.124,0-2.231,0.243-3.238,0.682c-0.148,0.042-0.293,0.1-0.429,0.19L19.8,10.998
	C17.97,5.396,12.702,1.334,6.496,1.334c-1.944,0-3.828,0.392-5.597,1.165C0.141,2.83-0.206,3.714,0.125,4.474
	C0.457,5.232,1.339,5.58,2.101,5.248c1.388-0.606,2.867-0.914,4.396-0.914c6.065,0,11,4.935,11,11c0,0.94-0.13,1.858-0.361,2.751
	c-0.109,0.071-0.206,0.154-0.291,0.249H12.5c-0.829,0-1.5,0.672-1.5,1.5s0.671,1.5,1.5,1.5h4.341
	c0.086,0.097,0.187,0.181,0.298,0.254c0.23,0.892,0.36,1.809,0.36,2.746c0,6.065-4.935,11-11,11c-1.528,0-3.008-0.308-4.397-0.914
	c-0.76-0.329-1.644,0.016-1.975,0.775c-0.332,0.759,0.015,1.643,0.774,1.975c1.77,0.772,3.653,1.164,5.597,1.164
	c6.511,0,11.981-4.474,13.54-10.504l13.128,8.752c0.152,0.102,0.316,0.162,0.483,0.201c0.995,0.425,2.083,0.66,3.184,0.66
	c4.182,0,7.585-3.14,7.585-6.999C44.42,28.129,43.19,26.078,41.307,24.804z M36.835,34.443c-0.78,0-1.549-0.176-2.227-0.507
	L20.49,24.524c0.001-0.063,0.01-0.126,0.01-0.19c0-1.55-0.26-3.058-0.753-4.505c0.49-1.442,0.749-2.947,0.749-4.495
	c0-0.39-0.027-0.773-0.059-1.155l14.216-9.478c0.665-0.316,1.416-0.487,2.181-0.487c2.528,0,4.585,1.794,4.585,4
	c0,2.206-2.057,4-4.585,4c-0.829,0-1.5,0.672-1.5,1.5c0,0.316,0.099,0.609,0.267,0.851c0.269,0.403,0.727,0.67,1.248,0.67
	c2.206,0,4,1.839,4,4.1s-1.794,4.1-4,4.1c-0.315,0-0.607,0.099-0.849,0.265c-0.401,0.269-0.666,0.727-0.666,1.246
	c0,0.828,0.671,1.5,1.5,1.5c2.528,0,4.585,1.794,4.585,4C41.42,32.649,39.363,34.443,36.835,34.443z"/>
</svg>
